<?xml version="1.0" encoding="UTF-8"?>
<svg version="1.1" xmlns="http://www.w3.org/2000/svg" width="35" height="35">
<path d="M0 0 C-0.62130229 6.30928097 -2.49989626 11.96207569 -4.5625 17.9375 C-4.89185547 18.90751953 -5.22121094 19.87753906 -5.56054688 20.87695312 C-6.3682448 23.25322384 -7.18150948 25.62742969 -8 28 C-12 28 -12 28 -14.8125 25.3125 C-17 22 -17 22 -17 19.375 C-15.95690067 16.8976391 -14.73939284 15.04189594 -13 13 C-13.721875 13.680625 -14.44375 14.36125 -15.1875 15.0625 C-18 17 -18 17 -20.4375 17.0625 C-24.02740848 15.57400136 -26.20895455 13.72613742 -29 11 C-29 10.01 -29 9.02 -29 8 C-24.91972749 6.65717071 -20.83531809 5.32739205 -16.75 4 C-15.59113281 3.6184375 -14.43226562 3.236875 -13.23828125 2.84375 C-12.12324219 2.4828125 -11.00820313 2.121875 -9.859375 1.75 C-8.83295898 1.41484375 -7.80654297 1.0796875 -6.74902344 0.734375 C-4 0 -4 0 0 0 Z " fill="#EE8622" transform="translate(32,3)"/>
</svg>
