<?xml version="1.0" encoding="UTF-8"?>
<svg version="1.1" xmlns="http://www.w3.org/2000/svg" width="30" height="30">
<path d="M0 0 C2.31 0 4.62 0 7 0 C8.25 7.625 8.25 7.625 6 11 C8.79420492 14.91603304 8.79420492 14.91603304 13 17 C13.66 16.34 14.32 15.68 15 15 C17.72869407 15.03287583 20.2966618 15.56397771 23 16 C23 18.31 23 20.62 23 23 C17.937054 24.79652923 13.66176361 23.21221873 9 21 C6.125 18.5625 6.125 18.5625 4 16 C3.443125 15.38125 2.88625 14.7625 2.3125 14.125 C-0.06206816 10.28046107 -1.19933705 6.56147356 -0.625 2.0625 C-0.41875 1.381875 -0.2125 0.70125 0 0 Z " fill="#EE8722" transform="translate(4,3)"/>
</svg>
