<svg id="visual" viewBox="0 0 900 600" width="900" height="600" xmlns="http://www.w3.org/2000/svg" xmlns:xlink="http://www.w3.org/1999/xlink" version="1.1"><g transform="translate(425.56151924209973 280.3894527730233)"><path d="M125 -171.1C149.8 -154.1 149.1 -101.2 171.5 -51.2C194 -1.2 239.7 45.7 231.6 76.7C223.5 107.6 161.7 122.6 114.2 150C66.6 177.4 33.3 217.2 -2.4 220.5C-38.2 223.9 -76.4 190.8 -111.1 159.3C-145.8 127.7 -177.1 97.7 -182.7 63.4C-188.3 29 -168.3 -9.6 -159.4 -56.3C-150.4 -103.1 -152.5 -157.9 -127.8 -174.9C-103.1 -191.9 -51.5 -170.9 -0.7 -170C50.2 -169 100.3 -188.1 125 -171.1" fill="#ee8623"></path></g></svg>