<svg id="visual" viewBox="0 0 693.3 600" width="693.3" height="600" xmlns="http://www.w3.org/2000/svg" xmlns:xlink="http://www.w3.org/1999/xlink" version="1.1"><g transform="translate(688.6652952149853 1.7117543636732364)"><path d="M162.6 -268.7C202.3 -227.5 220.3 -168.2 243.9 -112.6C267.4 -57 296.5 -5.1 304.1 54C311.6 113.1 297.5 179.3 258.7 224.1C219.8 268.9 156.3 292.3 91.7 310.5C27 328.8 -38.6 341.9 -83.6 314.9C-128.5 287.8 -152.8 220.7 -189.1 169.2C-225.3 117.7 -273.5 82 -289.9 35.4C-306.3 -11.1 -291 -68.5 -268.5 -124.7C-246.1 -180.9 -216.6 -236 -170.6 -274.4C-124.7 -312.7 -62.4 -334.4 -0.5 -333.7C61.5 -333 122.9 -309.9 162.6 -268.7" fill="#ee8623"></path></g></svg>