<?xml version="1.0" encoding="UTF-8"?>
<svg version="1.1" xmlns="http://www.w3.org/2000/svg" width="40" height="40">
<path d="M0 0 C4.8846525 2.26787438 7.73212562 5.1153475 10 10 C10.75381535 15.5997712 10.77303575 20.33499991 8.375 25.5 C5.79836339 28.21224907 3.23554816 30.13057217 0 32 C-0.33 32 -0.66 32 -1 32 C-1.48828125 29.98177083 -1.9765625 27.96354167 -2.46484375 25.9453125 C-2.94846992 23.9414343 -2.94846992 23.9414343 -4 22 C-1.69 21.34 0.62 20.68 3 20 C3.07427838 16.65747276 3.06546953 14.1964086 2 11 C2.4375 8.8125 2.4375 8.8125 3 7 C2.01 7.66 1.02 8.32 0 9 C-2.41015625 9.23046875 -2.41015625 9.23046875 -5.0625 9.1875 C-6.37927734 9.17783203 -6.37927734 9.17783203 -7.72265625 9.16796875 C-10 9 -10 9 -12 8 C-12.94387912 10.98469884 -13.7354418 13.87389397 -14 17 C-11.99173418 19.90082841 -9.9406862 21.03954254 -7 23 C-9 26 -9 26 -12 27 C-11.505 27.45375 -11.01 27.9075 -10.5 28.375 C-9 30 -9 30 -9 32 C-13.92289989 31.56562648 -16.48750825 29.356381 -20 26 C-23.10696172 21.14471406 -22.59472068 15.54577036 -22 10 C-17.52212837 0.3553534 -9.85292056 -1.32635469 0 0 Z " fill="#EE8622" transform="translate(26,4)"/>
</svg>
