<?xml version="1.0" encoding="UTF-8"?>
<svg version="1.1" xmlns="http://www.w3.org/2000/svg" width="40" height="40">
<path d="M0 0 C1.47726563 -0.02900391 1.47726563 -0.02900391 2.984375 -0.05859375 C7.44173413 -0.02847646 10.26149283 0.19069181 14.1484375 2.4765625 C16.89702825 7.15032651 16.72959615 11.29756958 16.625 16.625 C16.64433594 17.60984375 16.66367187 18.5946875 16.68359375 19.609375 C16.65347646 24.06673413 16.43430819 26.88649283 14.1484375 30.7734375 C9.47467349 33.52202825 5.32743042 33.35459615 0 33.25 C-0.98484375 33.26933594 -1.9696875 33.28867187 -2.984375 33.30859375 C-7.44173413 33.27847646 -10.26149283 33.05930819 -14.1484375 30.7734375 C-16.89702825 26.09967349 -16.72959615 21.95243042 -16.625 16.625 C-16.64433594 15.64015625 -16.66367187 14.6553125 -16.68359375 13.640625 C-16.65347646 9.18326587 -16.43430819 6.36350717 -14.1484375 2.4765625 C-9.47467349 -0.27202825 -5.32743042 -0.10459615 0 0 Z M-5.375 11.25 C-7.48706506 14.33686432 -7.61195145 15.9532913 -7 19.625 C-5.5 22.125 -5.5 22.125 -3 23.625 C0.6717087 24.23695145 2.28813568 24.11206506 5.375 22 C7.48706506 18.91313568 7.61195145 17.2967087 7 13.625 C5.5 11.125 5.5 11.125 3 9.625 C-0.6717087 9.01304855 -2.28813568 9.13793494 -5.375 11.25 Z " fill="#EE8622" transform="translate(20,3.375)"/>
<path d="M0 0 C2.9375 0.8125 2.9375 0.8125 4.9375 3.8125 C4.75 6.875 4.75 6.875 3.9375 9.8125 C0.9375 11.8125 0.9375 11.8125 -2.125 11.625 C-5.0625 10.8125 -5.0625 10.8125 -7.0625 7.8125 C-6.875 4.75 -6.875 4.75 -6.0625 1.8125 C-3.0625 -0.1875 -3.0625 -0.1875 0 0 Z " fill="#ED8622" transform="translate(21.0625,14.1875)"/>
</svg>
