<?xml version="1.0" encoding="UTF-8"?>
<svg version="1.1" xmlns="http://www.w3.org/2000/svg" width="35" height="35">
<path d="M0 0 C0.99 0 1.98 0 3 0 C3 0.66 3 1.32 3 2 C4.65 1.67 6.3 1.34 8 1 C8.66 1.99 9.32 2.98 10 4 C10.99 4 11.98 4 13 4 C13 5.32 13 6.64 13 8 C13.99 8.33 14.98 8.66 16 9 C15.67 10.65 15.34 12.3 15 14 C15.66 14 16.32 14 17 14 C17 14.99 17 15.98 17 17 C16.34 17 15.68 17 15 17 C15.33 18.65 15.66 20.3 16 22 C15.01 22.66 14.02 23.32 13 24 C13 24.99 13 25.98 13 27 C12.360625 27.12375 11.72125 27.2475 11.0625 27.375 C10.381875 27.58125 9.70125 27.7875 9 28 C8.67 28.66 8.34 29.32 8 30 C6.35 29.67 4.7 29.34 3 29 C3 29.66 3 30.32 3 31 C2.01 31 1.02 31 0 31 C0 30.34 0 29.68 0 29 C-1.65 29.33 -3.3 29.66 -5 30 C-5.66 29.01 -6.32 28.02 -7 27 C-7.99 27 -8.98 27 -10 27 C-10 25.68 -10 24.36 -10 23 C-10.99 22.67 -11.98 22.34 -13 22 C-12.67 20.35 -12.34 18.7 -12 17 C-12.66 17 -13.32 17 -14 17 C-14 16.01 -14 15.02 -14 14 C-13.34 14 -12.68 14 -12 14 C-12.33 12.35 -12.66 10.7 -13 9 C-12.01 8.34 -11.02 7.68 -10 7 C-10 6.01 -10 5.02 -10 4 C-9.360625 3.87625 -8.72125 3.7525 -8.0625 3.625 C-7.0415625 3.315625 -7.0415625 3.315625 -6 3 C-5.67 2.34 -5.34 1.68 -5 1 C-3.35 1.33 -1.7 1.66 0 2 C0 1.34 0 0.68 0 0 Z M-7 12 C-7.83333333 15.5 -7.83333333 15.5 -7 19 C-4.40783917 22.69186542 -2.95850936 23.82883761 1.5 24.625 C5.95850936 23.82883761 7.40783917 22.69186542 10 19 C10.83333333 15.5 10.83333333 15.5 10 12 C7.40783917 8.30813458 5.95850936 7.17116239 1.5 6.375 C-2.95850936 7.17116239 -4.40783917 8.30813458 -7 12 Z " fill="#EE8623" transform="translate(16,2)"/>
<path d="M0 0 C3.48670834 1.1094072 6.77484237 2.26337666 10 4 C10 4.99 10 5.98 10 7 C8.71086513 7.67154933 7.41859796 8.33708859 6.125 9 C5.40570312 9.37125 4.68640625 9.7425 3.9453125 10.125 C2 11 2 11 0 11 C0 7.37 0 3.74 0 0 Z " fill="#ED8522" transform="translate(14,12)"/>
</svg>
