<?xml version="1.0" encoding="UTF-8"?>
<svg version="1.1" xmlns="http://www.w3.org/2000/svg" width="35" height="35">
<path d="M0 0 C8.25 0 16.5 0 25 0 C25 6.93 25 13.86 25 21 C24.34 21.33 23.68 21.66 23 22 C23.66 22.99 24.32 23.98 25 25 C16.75 25 8.5 25 0 25 C0.99 23.515 0.99 23.515 2 22 C1.34 21.67 0.68 21.34 0 21 C0 14.07 0 7.14 0 0 Z M3 3 C3 7.95 3 12.9 3 18 C9.27 18 15.54 18 22 18 C22 13.05 22 8.1 22 3 C15.73 3 9.46 3 3 3 Z " fill="#EE8523" transform="translate(5,5)"/>
<path d="M0 0 C3.28212246 0.43761633 4.84832931 1.52557871 7 4 C5.60667426 7.36720387 4.0210714 8.9859524 1 11 C0.34 10.01 -0.32 9.02 -1 8 C-0.34 6.68 0.32 5.36 1 4 C0.34 3.01 -0.32 2.02 -1 1 C-0.67 0.67 -0.34 0.34 0 0 Z " fill="#EF8721" transform="translate(19,10)"/>
<path d="M0 0 C2.125 0.375 2.125 0.375 4 1 C3.62875 1.763125 3.2575 2.52625 2.875 3.3125 C2.58625 4.199375 2.2975 5.08625 2 6 C2.99 7.485 2.99 7.485 4 9 C3.01 9.66 2.02 10.32 1 11 C-0.65 9.35 -2.3 7.7 -4 6 C-2.84826645 3.53199953 -1.95216435 1.95216435 0 0 Z " fill="#EF8723" transform="translate(13,10)"/>
</svg>
