<?xml version="1.0" encoding="UTF-8"?>
<svg version="1.1" xmlns="http://www.w3.org/2000/svg" width="40" height="40">
<path d="M0 0 C1.25554688 -0.00128906 2.51109375 -0.00257813 3.8046875 -0.00390625 C4.46178711 -0.00181152 5.11888672 0.0002832 5.79589844 0.00244141 C7.80411335 0.00779016 9.81210459 0.00249559 11.8203125 -0.00390625 C13.07585938 -0.00261719 14.33140625 -0.00132812 15.625 0 C16.78644531 0.00112793 17.94789062 0.00225586 19.14453125 0.00341797 C21.8125 0.1328125 21.8125 0.1328125 22.8125 1.1328125 C22.91243532 3.1933656 22.94330906 5.2573384 22.9453125 7.3203125 C22.94724609 9.20363281 22.94724609 9.20363281 22.94921875 11.125 C22.94607666 12.11064941 22.94607666 12.11064941 22.94287109 13.11621094 C22.93752234 15.12442585 22.94281691 17.13241709 22.94921875 19.140625 C22.94792969 20.39617188 22.94664063 21.65171875 22.9453125 22.9453125 C22.94418457 24.10675781 22.94305664 25.26820312 22.94189453 26.46484375 C22.8125 29.1328125 22.8125 29.1328125 21.8125 30.1328125 C19.7519469 30.23274782 17.6879741 30.26362156 15.625 30.265625 C14.36945312 30.26691406 13.11390625 30.26820312 11.8203125 30.26953125 C11.16321289 30.26743652 10.50611328 30.2653418 9.82910156 30.26318359 C7.82088665 30.25783484 5.81289541 30.26312941 3.8046875 30.26953125 C2.54914062 30.26824219 1.29359375 30.26695313 0 30.265625 C-1.16144531 30.26449707 -2.32289062 30.26336914 -3.51953125 30.26220703 C-6.1875 30.1328125 -6.1875 30.1328125 -7.1875 29.1328125 C-7.28743532 27.0722594 -7.31830906 25.0082866 -7.3203125 22.9453125 C-7.32160156 21.68976562 -7.32289063 20.43421875 -7.32421875 19.140625 C-7.32212402 18.48352539 -7.3200293 17.82642578 -7.31787109 17.14941406 C-7.31252234 15.14119915 -7.31781691 13.13320791 -7.32421875 11.125 C-7.32292969 9.86945312 -7.32164062 8.61390625 -7.3203125 7.3203125 C-7.31862061 5.57814453 -7.31862061 5.57814453 -7.31689453 3.80078125 C-7.07536492 -1.179286 -4.38338655 0.0042569 0 0 Z M-1.1875 6.1328125 C-1.1875 7.1228125 -1.1875 8.1128125 -1.1875 9.1328125 C-0.1975 9.1328125 0.7925 9.1328125 1.8125 9.1328125 C1.8125 8.1428125 1.8125 7.1528125 1.8125 6.1328125 C0.8225 6.1328125 -0.1675 6.1328125 -1.1875 6.1328125 Z M-1.1875 12.1328125 C-1.1875 16.0928125 -1.1875 20.0528125 -1.1875 24.1328125 C-0.1975 24.1328125 0.7925 24.1328125 1.8125 24.1328125 C1.8125 20.1728125 1.8125 16.2128125 1.8125 12.1328125 C0.8225 12.1328125 -0.1675 12.1328125 -1.1875 12.1328125 Z M5.8125 12.1328125 C5.8125 16.0928125 5.8125 20.0528125 5.8125 24.1328125 C6.8025 24.1328125 7.7925 24.1328125 8.8125 24.1328125 C9.1425 20.8328125 9.4725 17.5328125 9.8125 14.1328125 C9.1525 14.1328125 8.4925 14.1328125 7.8125 14.1328125 C7.8125 13.4728125 7.8125 12.8128125 7.8125 12.1328125 C7.1525 12.1328125 6.4925 12.1328125 5.8125 12.1328125 Z M10.8125 12.1328125 C10.4825 12.7928125 10.1525 13.4528125 9.8125 14.1328125 C10.8025 14.4628125 11.7925 14.7928125 12.8125 15.1328125 C13.1425 18.1028125 13.4725 21.0728125 13.8125 24.1328125 C14.8025 24.1328125 15.7925 24.1328125 16.8125 24.1328125 C16.86672947 22.6957316 16.90539723 21.25805788 16.9375 19.8203125 C16.96070313 19.01980469 16.98390625 18.21929687 17.0078125 17.39453125 C16.97067322 14.84892674 16.97067322 14.84892674 14.8125 12.1328125 C13.4925 12.1328125 12.1725 12.1328125 10.8125 12.1328125 Z " fill="#EE8522" transform="translate(12.1875,4.8671875)"/>
</svg>
