<?xml version="1.0" encoding="UTF-8"?>
<svg version="1.1" xmlns="http://www.w3.org/2000/svg" width="40" height="40">
<path d="M0 0 C4.91957021 2.64080825 8.16838994 5.99735731 9.9296875 11.28125 C10.66393489 18.16632392 10.07029966 22.68582816 5.9296875 28.28125 C1.73534962 32.16868511 -1.3422622 33.42328925 -7.0078125 33.40625 C-8.28978516 33.41011719 -8.28978516 33.41011719 -9.59765625 33.4140625 C-12.0703125 33.28125 -12.0703125 33.28125 -14.12109375 32.74609375 C-16.3741807 32.20878444 -18.03841797 32.37646582 -20.3203125 32.71875 C-21.5578125 32.904375 -22.7953125 33.09 -24.0703125 33.28125 C-23.98652344 32.66636719 -23.90273438 32.05148438 -23.81640625 31.41796875 C-23.71457031 30.60972656 -23.61273437 29.80148438 -23.5078125 28.96875 C-23.40339844 28.16824219 -23.29898437 27.36773438 -23.19140625 26.54296875 C-22.92276072 24.11307884 -22.92276072 24.11307884 -24.0703125 21.28125 C-24.80455989 14.39617608 -24.21092466 9.87667184 -20.0703125 4.28125 C-14.43968752 -0.93737803 -7.40605466 -2.5711586 0 0 Z M-17.8828125 9.09375 C-20.28672267 13.52200558 -20.31928472 17.26876296 -19.1328125 22.09375 C-18.7821875 23.145625 -18.4315625 24.1975 -18.0703125 25.28125 C-18.0703125 25.94125 -18.0703125 26.60125 -18.0703125 27.28125 C-12.49283659 28.81157786 -7.78158695 29.89764843 -2.0703125 28.28125 C1.12695386 26.37320394 3.42469214 24.11559016 5.3671875 20.90625 C6.24643201 16.80310894 6.12333601 13.23206362 3.8828125 9.5703125 C0.63558207 5.46116288 -1.8207549 3.57467056 -6.9453125 2.90625 C-11.68515229 3.47503078 -14.5635736 5.7745111 -17.8828125 9.09375 Z " fill="#EE8721" transform="translate(27.0703125,3.71875)"/>
<path d="M0 0 C1.65 0.33 3.3 0.66 5 1 C5.12375 2.11375 5.2475 3.2275 5.375 4.375 C5.6465813 8.03103677 5.6465813 8.03103677 8 10 C10.3329614 10.04166002 12.6670386 10.04166002 15 10 C15.66 10.33 16.32 10.66 17 11 C16.67 12.65 16.34 14.3 16 16 C11.9133472 16.5108316 9.34117584 16.77295897 5.72265625 14.6875 C2.03183444 11.69746714 0.23458478 9.8417454 -1.0625 5.1875 C-1 2 -1 2 0 0 Z " fill="#EE8721" transform="translate(12,12)"/>
</svg>
